<svg xmlns="http://www.w3.org/2000/svg" width="200" height="200" viewBox="0 0 200 200" aria-label="Logo ONG Solidária">
  <defs>
    <linearGradient id="g1" x1="0" x2="1" y1="0" y2="1">
      <stop offset="0" stop-color="#66b8ff"/>
      <stop offset="1" stop-color="#1d79e6"/>
    </linearGradient>
  </defs>
  <rect width="200" height="200" rx="20" fill="#ffffff"/>
  <!-- hands -->
  <path d="M60 120 C40 110, 30 90, 50 75 C70 60, 85 70, 100 85" fill="none" stroke="#145bbf" stroke-width="6" stroke-linecap="round"/>
  <path d="M140 120 C160 110, 170 90, 150 75 C130 60, 115 70, 100 85" fill="none" stroke="#145bbf" stroke-width="6" stroke-linecap="round"/>
  <!-- heart -->
  <path d="M100 95
           C85 80, 60 80, 60 105
           C60 130, 100 150, 100 150
           C100 150, 140 130, 140 105
           C140 80, 115 80, 100 95 Z" fill="url(#g1)" stroke="#0e3e8a" stroke-width="2"/>
  <text x="100" y="180" font-family="Arial, sans-serif" font-size="18" fill="#0e3e8a" text-anchor="middle">ONG Solidária</text>
</svg>
